<svg width="1234" height="533" viewBox="0 0 1234 533" fill="none" xmlns="http://www.w3.org/2000/svg">
<path d="M1233.42 499.444V520.626L985.889 522.907L983.25 522.956L889.171 523.819L886.922 523.852L858.327 524.096H857.48L683.172 525.709L397.041 528.365H396.797L324.046 529.05L323.264 529.066L0 532.031V507.591L76.0094 461.969L228.517 460.698L231.776 460.682L232.851 460.666L236.11 460.617L309.333 460.014L312.608 459.998L313.651 459.981L316.909 459.965L340.388 459.769L341.007 459.753L398.931 459.264H399.404L851.386 455.452L862.45 455.37H863.558L871.998 455.289L933.343 454.784L936.601 454.735L939.616 454.702H941.18L960.26 454.555L964.04 454.507L969.107 454.474L984.993 454.327L1010.2 454.116L1013.46 454.083L1019.13 454.05H1020.19L1141.92 453.008L1233.42 499.444Z" fill="#65617D"/>
<path opacity="0.2" d="M1233.42 499.444V520.626L985.889 522.907L983.25 522.956L889.171 523.819L886.922 523.852L858.327 524.096H857.48L683.172 525.709L397.041 528.365H396.797L324.046 529.05L323.264 529.066L0 532.031V507.591L76.0094 461.969L228.517 460.698L231.776 460.682L232.851 460.666L236.11 460.617L309.333 460.014L312.608 459.998L313.651 459.981L316.909 459.965L340.388 459.769L341.007 459.753L398.931 459.264H399.404L851.386 455.452L862.45 455.37H863.558L871.998 455.289L933.343 454.784L936.601 454.735L939.616 454.702H941.18L960.26 454.555L964.04 454.507L969.107 454.474L984.993 454.327L1010.2 454.116L1013.46 454.083L1019.13 454.05H1020.19L1141.92 453.008L1233.42 499.444Z" fill="black"/>
<path d="M309.592 417.993V457.896C309.593 459.786 309.058 461.637 308.049 463.235C307.039 464.833 305.597 466.111 303.89 466.922C302.619 467.538 301.229 467.872 299.816 467.9L242.952 469.106C241.433 469.142 239.927 468.824 238.553 468.177C236.815 467.38 235.343 466.102 234.312 464.493C233.281 462.884 232.734 461.012 232.736 459.101V417.993H309.592Z" fill="#3F3D56"/>
<path opacity="0.1" d="M309.592 417.993V457.896C309.593 459.786 309.058 461.637 308.049 463.235C307.039 464.833 305.597 466.111 303.89 466.922C302.619 467.538 301.229 467.872 299.816 467.9L242.952 469.106C241.433 469.142 239.927 468.824 238.553 468.177C236.815 467.38 235.343 466.102 234.312 464.493C233.281 462.884 232.734 461.012 232.736 459.101V417.993H309.592Z" fill="black"/>
<path d="M312.851 417.993V457.896C312.852 459.786 312.316 461.637 311.307 463.235C310.297 464.833 308.855 466.111 307.148 466.922C305.877 467.538 304.487 467.872 303.075 467.9L246.21 469.106C244.692 469.142 243.185 468.824 241.811 468.177C240.074 467.38 238.602 466.102 237.571 464.493C236.539 462.884 235.992 461.012 235.994 459.101V417.993H312.851Z" fill="#3F3D56"/>
<path d="M1013.46 417.976H936.602V469.301H1013.46V417.976Z" fill="#3F3D56"/>
<path opacity="0.1" d="M1013.46 417.976H936.602V469.301H1013.46V417.976Z" fill="black"/>
<path d="M1010.2 417.976H933.343V469.301H1010.2V417.976Z" fill="#3F3D56"/>
<path opacity="0.1" d="M312.835 417.976V426.074L235.979 428.127V417.976H312.835Z" fill="black"/>
<path d="M448.496 138.884V412.941C448.476 414.614 447.814 416.216 446.646 417.414C445.479 418.612 443.895 419.315 442.223 419.377L129.957 427.687H129.876C128.176 427.666 126.551 426.981 125.348 425.779C124.146 424.576 123.461 422.952 123.44 421.251V138.884C123.461 137.184 124.146 135.559 125.348 134.357C126.551 133.154 128.176 132.469 129.876 132.448H442.06C443.76 132.469 445.385 133.154 446.588 134.357C447.79 135.559 448.475 137.184 448.496 138.884V138.884Z" fill="#65617D"/>
<path opacity="0.1" d="M129.957 132.448V427.687H129.876C128.176 427.666 126.551 426.981 125.348 425.779C124.146 424.576 123.461 422.952 123.44 421.251V138.884C123.461 137.184 124.146 135.559 125.348 134.357C126.551 133.154 128.176 132.469 129.876 132.448H129.957Z" fill="black"/>
<path d="M144.198 149.948H433.408V391.499L144.198 398.017V149.948Z" fill="white"/>
<path opacity="0.1" d="M1010.2 417.976V428.42L933.343 426.367V417.976H1010.2Z" fill="black"/>
<path d="M1111.64 138.884V421.251C1111.62 422.966 1110.93 424.602 1109.71 425.807C1108.49 427.012 1106.84 427.687 1105.13 427.687V427.687L792.796 419.377C791.124 419.315 789.54 418.612 788.373 417.414C787.205 416.216 786.543 414.614 786.523 412.941V138.884C786.544 137.184 787.229 135.559 788.431 134.357C789.634 133.154 791.258 132.469 792.959 132.448H1105.14C1106.85 132.452 1108.5 133.13 1109.71 134.334C1110.93 135.538 1111.62 137.173 1111.64 138.884V138.884Z" fill="#65617D"/>
<path opacity="0.1" d="M1111.64 138.884V421.251C1111.62 422.966 1110.92 424.602 1109.7 425.807C1108.49 427.012 1106.84 427.687 1105.12 427.687V427.687V132.448C1106.84 132.448 1108.49 133.124 1109.7 134.328C1110.92 135.533 1111.62 137.17 1111.64 138.884Z" fill="black"/>
<path d="M1090.85 149.948H801.643V391.499L1090.85 398.017V149.948Z" fill="white"/>
<path d="M778.44 138.884V412.941C778.42 414.614 777.758 416.216 776.59 417.414C775.422 418.612 773.839 419.315 772.167 419.377L459.901 427.687C458.187 427.687 456.541 427.012 455.321 425.807C454.101 424.602 453.405 422.966 453.384 421.251V138.884C453.405 137.184 454.09 135.559 455.292 134.357C456.495 133.154 458.119 132.469 459.82 132.448H772.004C773.704 132.469 775.329 133.154 776.531 134.357C777.734 135.559 778.419 137.184 778.44 138.884V138.884Z" fill="#65617D"/>
<path d="M474.142 149.948H763.352V391.499L474.142 398.017V149.948Z" fill="white"/>
<path opacity="0.1" d="M1233.42 499.444V520.626L985.889 522.907L983.25 522.956L889.171 523.819L886.922 523.852L858.327 524.096H857.48L683.172 525.709L397.041 528.365H396.797L324.046 529.049L323.264 529.066L0 532.031V507.591L329.96 505.424H330.743L397.53 504.968H397.839L859.077 501.921H859.549L859.826 501.904H860.592L868.397 501.856H870.776L992.146 501.041L999.315 501.008L1000.91 500.992L1233.42 499.444Z" fill="black"/>
<path d="M621.061 199.366C667.251 199.366 704.695 161.922 704.695 115.731C704.695 69.5412 667.251 32.0967 621.061 32.0967C574.87 32.0967 537.426 69.5412 537.426 115.731C537.426 161.922 574.87 199.366 621.061 199.366Z" fill="#FBBEBE"/>
<path d="M704.712 244.466C704.712 244.466 542.591 264.019 558.07 244.466C563.675 237.395 565.223 216.441 564.913 192.571C564.816 185.321 564.555 177.81 564.18 170.331C562.388 134.485 558.07 99.4539 558.07 99.4539C558.07 99.4539 699.824 32.6504 683.53 85.6044C677.013 106.998 679.147 137.043 684.101 165.247C685.551 173.475 687.229 181.541 688.989 189.199C693.283 207.878 698.531 226.324 704.712 244.466V244.466Z" fill="#FBBEBE"/>
<path d="M651.807 237.835C670.561 234.365 690.423 228.059 708.069 235.326C712.712 237.232 716.981 240.018 721.739 241.615C726.497 243.212 731.71 243.603 736.664 244.727C754.065 248.67 768.175 261.917 777.235 277.314C786.294 292.712 790.986 310.13 795.581 327.368L806.824 369.454C816.6 406.033 826.376 442.922 828.641 480.739C692.535 488.53 556.119 489.308 419.934 483.069C428.797 466.222 437.857 448.348 437.107 429.3C436.357 410.253 425.392 391.467 429.351 372.697C431.877 360.737 440.056 350.88 445.058 339.751C459.315 307.946 448.219 265.143 473.279 240.931C484.554 230.047 500.978 225.924 516.668 226.446C536.677 227.114 557.158 233.354 576.954 236.401C602.307 240.246 626.259 242.528 651.807 237.835Z" fill="#2A5FFF"/>
<path opacity="0.1" d="M865.09 418.97L864.927 421.3V421.463L864.65 425.211L862.483 455.37L859.86 491.705L859.11 501.937L857.481 523.836V524.113L683.14 525.742L397.042 528.838V530.206H396.813V528.382L397.547 504.984L398.948 459.264L400.154 420.502L400.268 416.64C400.339 414.31 400.885 412.018 401.871 409.905C402.858 407.792 404.265 405.903 406.006 404.352C407.748 402.801 409.787 401.622 412 400.885C414.212 400.149 416.552 399.872 418.875 400.07C426.565 400.722 436.553 401.52 448.497 402.367L453.385 402.726C522.355 407.516 649.82 413.708 778.441 405.984C781.146 405.838 783.867 405.675 786.588 405.479C806.531 404.225 826.458 402.612 846.189 400.591C848.684 400.33 851.205 400.619 853.576 401.437C855.946 402.255 858.109 403.584 859.911 405.328C861.713 407.073 863.11 409.191 864.005 411.534C864.9 413.877 865.27 416.387 865.09 418.889V418.97Z" fill="black"/>
<path d="M396.993 530.206V528.838L683.14 525.726L857.481 524.096H857.97V523.819L859.599 501.921L860.299 492.145L862.972 455.305L865.073 426.139V425.423C865.171 424.079 865.111 422.728 864.894 421.398C864.903 421.344 864.903 421.289 864.894 421.235C864.447 418.485 863.327 415.888 861.636 413.675C859.841 411.374 857.491 409.569 854.805 408.428C852.12 407.288 849.188 406.851 846.287 407.157C826.556 409.178 806.629 410.791 786.685 412.046C783.964 412.241 781.243 412.404 778.539 412.551C649.917 420.192 522.453 414.001 453.482 409.292L448.594 408.933C436.651 408.086 426.663 407.304 418.973 406.636C414.742 406.279 410.529 407.502 407.147 410.069C403.765 412.635 401.453 416.364 400.659 420.534C400.494 421.417 400.396 422.31 400.365 423.207L399.258 459.313L397.742 505.049L397.025 528.447V530.271L396.993 530.206Z" fill="#3F3D56"/>
<path opacity="0.1" d="M865.579 430.392L863.575 455.37L860.593 492.601L859.844 501.921L858.214 522.793L858.117 523.836V524.113L857.872 526.524L858.051 524.113H857.579L683.238 525.742L397.042 528.838V528.382L397.84 504.984L399.47 459.264L400.513 428.877C400.564 427.148 401.047 425.46 401.918 423.966C402.789 422.472 404.02 421.219 405.498 420.323C407.343 419.192 409.501 418.678 411.657 418.856C415.079 419.133 419.283 419.459 424.187 419.818C432.155 420.404 441.98 421.089 453.418 421.805C474.599 423.141 501.174 424.575 531.627 425.749C616.353 429.007 730.734 430.099 839.379 420.583C844.267 420.16 849.318 419.687 854.255 419.215C856.209 419.02 858.178 419.393 859.925 420.29C860.42 420.537 860.889 420.831 861.326 421.17C862.745 422.198 863.869 423.58 864.585 425.178C864.751 425.496 864.888 425.829 864.993 426.172C865.482 427.522 865.682 428.96 865.579 430.392V430.392Z" fill="black"/>
<path opacity="0.1" d="M312.851 452.698V457.896C312.852 459.786 312.316 461.637 311.307 463.235C310.297 464.833 308.855 466.111 307.148 466.922L241.811 468.177C240.074 467.381 238.602 466.102 237.571 464.493C236.539 462.884 235.992 461.012 235.994 459.101V454.213L312.851 452.698Z" fill="black"/>
<path d="M313.649 469.985L228.516 471.615V457.488L313.649 455.859V469.985Z" fill="#3F3D56"/>
<path opacity="0.1" d="M313.649 469.985L228.516 471.615V457.488L313.649 455.859V469.985Z" fill="black"/>
<path d="M316.908 469.985L231.774 471.615V457.488L316.908 455.859V469.985Z" fill="#3F3D56"/>
<path opacity="0.1" d="M933.832 455.957V461.155C933.831 463.045 934.366 464.896 935.375 466.494C936.385 468.092 937.827 469.37 939.534 470.181L1004.87 471.436C1006.61 470.64 1008.08 469.361 1009.11 467.752C1010.14 466.143 1010.69 464.271 1010.69 462.36V457.472L933.832 455.957Z" fill="black"/>
<path opacity="0.1" d="M933.016 473.244L1018.15 474.874V460.747L933.016 459.118V473.244Z" fill="black"/>
<path d="M929.758 473.244L1014.89 474.874V460.747L929.758 459.118V473.244Z" fill="#3F3D56"/>
<path d="M568.156 141.361C568.286 152.766 563.007 163.52 558.526 174.062C542.212 212.463 535.147 254.159 537.899 295.791C539.088 313.714 542.102 331.637 539.088 349.397C536.074 367.157 525.353 384.868 508.13 389.968C536.693 406.995 575.357 405.202 602.242 385.634C616.564 375.206 627.236 360.656 637.68 346.35C636.44 372.048 628.999 397.065 615.994 419.264C639.502 417.182 662.311 410.186 682.944 398.729C703.577 387.272 721.573 371.608 735.767 352.753C742.79 343.287 748.9 332.892 751.605 321.421C756.639 300.239 749.617 278.227 744.256 257.061C739.777 239.368 736.419 221.409 734.203 203.293C733.503 197.492 732.932 191.529 734.366 185.859C735.996 179.227 740.346 173.622 743.556 167.577C752.68 150.404 752.892 129.613 748.216 110.745C743.539 91.8775 734.382 74.476 725.307 57.2863C718.04 43.502 710.154 29.0822 696.858 20.9843C688.549 15.9333 678.936 13.8314 669.355 11.7947L628.018 2.94737C618.975 1.00844 609.672 -0.930511 600.531 0.487027C585.101 2.89847 574.233 14.0433 564.685 25.4814C557.206 34.3776 538.925 51.0785 537.638 62.7284C536.465 73.4658 545.948 91.4539 547.561 102.778C549.679 117.442 551.178 112.554 559.455 121.548C564.685 127.12 568.058 133.556 568.156 141.361Z" fill="#161616"/>
<path d="M1016.54 274.795C1016.54 265.301 1004.64 256.302 986.414 250.722C990.621 232.147 988.75 217.357 980.512 212.624C978.516 211.506 976.256 210.944 973.969 210.995V217.512C975.126 217.476 976.272 217.738 977.299 218.272C981.273 220.553 983.002 229.227 981.653 240.388C981.327 243.134 980.805 246.028 980.164 248.978C974.057 247.507 967.859 246.443 961.612 245.795C957.89 240.661 953.83 235.781 949.458 231.187C958.982 222.335 967.922 217.485 974 217.485V210.959C965.965 210.959 955.448 216.685 944.813 226.619C934.178 216.743 923.661 211.076 915.626 211.076V217.594C921.675 217.594 930.643 222.415 940.168 231.209C935.817 235.786 931.786 240.657 928.102 245.786C921.844 246.428 915.638 247.502 909.528 249C908.856 246.078 908.36 243.245 908.009 240.527C906.636 229.366 908.335 220.689 912.275 218.381C913.306 217.83 914.467 217.568 915.635 217.621V211.104C913.328 211.053 911.05 211.616 909.032 212.733C900.822 217.458 898.983 232.22 903.219 250.743C885.047 256.353 873.214 265.321 873.214 274.787C873.214 284.283 885.109 293.28 903.336 298.861C899.129 317.436 901 332.225 909.238 336.959C911.243 338.08 913.513 338.643 915.811 338.588C923.845 338.588 934.362 332.862 944.997 322.928C955.632 332.804 966.149 338.471 974.184 338.471C976.49 338.521 978.768 337.959 980.786 336.841C988.996 332.116 990.836 317.354 986.599 298.832C1004.7 293.259 1016.54 284.26 1016.54 274.795ZM978.497 255.308C977.416 259.077 976.072 262.966 974.552 266.849C973.354 264.513 972.098 262.174 970.725 259.843C969.38 257.506 967.955 255.227 966.518 253C970.668 253.614 974.671 254.373 978.498 255.308H978.497ZM965.116 286.429C962.835 290.374 960.5 294.113 958.076 297.59C953.722 297.97 949.312 298.175 944.878 298.175C940.466 298.175 936.055 297.97 931.731 297.619C929.306 294.143 926.95 290.443 924.661 286.517C922.441 282.69 920.415 278.815 918.584 274.89C920.396 270.979 922.44 267.061 924.632 263.234C926.913 259.289 929.248 255.55 931.672 252.072C936.026 251.693 940.437 251.488 944.87 251.488C949.282 251.488 953.693 251.693 958.017 252.043C960.442 255.519 962.798 259.22 965.087 263.146C967.307 266.972 969.333 270.848 971.165 274.773C969.323 278.681 967.308 282.595 965.116 286.423V286.429ZM974.554 282.631C976.131 286.541 977.475 290.46 978.585 294.258C974.757 295.193 970.726 295.982 966.549 296.595C967.981 294.344 969.411 292.032 970.756 289.67C972.106 287.328 973.356 284.963 974.55 282.624L974.554 282.631ZM944.929 313.797C942.063 310.822 939.352 307.702 936.806 304.448C939.436 304.565 942.123 304.653 944.841 304.653C947.586 304.653 950.304 304.595 952.963 304.448C950.455 307.707 947.773 310.828 944.929 313.797ZM923.193 296.59C919.045 295.975 915.046 295.216 911.214 294.281C912.294 290.512 913.639 286.623 915.159 282.74C916.356 285.077 917.613 287.415 918.986 289.746C920.36 292.078 921.759 294.369 923.193 296.59ZM944.782 235.792C947.648 238.767 950.359 241.888 952.904 245.141C950.275 245.024 947.588 244.936 944.87 244.936C942.123 244.936 939.407 244.995 936.748 245.141C939.255 241.882 941.937 238.761 944.782 235.792V235.792ZM923.164 252.996C921.732 255.246 920.301 257.559 918.957 259.921C917.613 262.258 916.35 264.596 915.159 266.927C913.582 263.017 912.237 259.098 911.128 255.3C914.954 254.402 918.989 253.614 923.164 252.996ZM896.724 289.574C886.381 285.161 879.691 279.377 879.691 274.791C879.691 270.204 886.381 264.39 896.724 260.007C899.237 258.927 901.984 257.963 904.817 257.057C906.604 263.129 908.8 269.073 911.39 274.849C908.828 280.596 906.661 286.512 904.904 292.554C902.012 291.653 899.264 290.659 896.723 289.579L896.724 289.574ZM912.443 331.323C908.469 329.042 906.74 320.367 908.089 309.206C908.415 306.459 908.936 303.567 909.578 300.616C915.685 302.087 921.882 303.151 928.13 303.8C931.852 308.934 935.912 313.813 940.283 318.407C930.76 327.259 921.82 332.11 915.742 332.11C914.594 332.125 913.46 331.856 912.441 331.328L912.443 331.323ZM981.742 309.061C983.116 320.222 981.416 328.898 977.477 331.207C976.445 331.757 975.285 332.02 974.117 331.966C968.069 331.966 959.101 327.145 949.576 318.351C953.926 313.774 957.958 308.903 961.641 303.774C967.899 303.132 974.106 302.058 980.216 300.56C980.874 303.367 981.383 306.206 981.741 309.066L981.742 309.061ZM992.985 289.574C990.472 290.654 987.725 291.619 984.892 292.524C983.105 286.452 980.909 280.508 978.319 274.732C980.881 268.985 983.049 263.07 984.806 257.027C987.698 257.933 990.445 258.926 993.016 260.007C1003.36 264.42 1010.05 270.204 1010.05 274.791C1010.02 279.382 1003.33 285.196 992.988 289.579L992.985 289.574Z" fill="#2A5FFF"/>
<path d="M944.842 288.144C952.215 288.144 958.193 282.167 958.193 274.794C958.193 267.42 952.215 261.443 944.842 261.443C937.468 261.443 931.491 267.42 931.491 274.794C931.491 282.167 937.468 288.144 944.842 288.144Z" fill="#2A5FFF"/>
<path d="M369.568 177H198.432C196.537 177 195 178.449 195 180.236V186.764C195 188.551 196.537 190 198.432 190H369.568C371.463 190 373 188.551 373 186.764V180.236C373 178.449 371.463 177 369.568 177Z" fill="#E5E5E5"/>
<path d="M411.551 228H156.449C154.544 228 153 229.471 153 231.286V233.714C153 235.529 154.544 237 156.449 237H411.551C413.456 237 415 235.529 415 233.714V231.286C415 229.471 413.456 228 411.551 228Z" fill="#E5E5E5"/>
<path d="M411.551 255H156.449C154.544 255 153 256.635 153 258.651V261.349C153 263.365 154.544 265 156.449 265H411.551C413.456 265 415 263.365 415 261.349V258.651C415 256.635 413.456 255 411.551 255Z" fill="#E5E5E5"/>
<path d="M411.551 282H156.449C154.544 282 153 283.635 153 285.651V288.349C153 290.365 154.544 292 156.449 292H411.551C413.456 292 415 290.365 415 288.349V285.651C415 283.635 413.456 282 411.551 282Z" fill="#E5E5E5"/>
<path d="M411.551 310H156.449C154.544 310 153 311.471 153 313.286V315.714C153 317.529 154.544 319 156.449 319H411.551C413.456 319 415 317.529 415 315.714V313.286C415 311.471 413.456 310 411.551 310Z" fill="#E5E5E5"/>
<path d="M409.809 348H355.191C352.324 348 350 349.694 350 351.784V358.216C350 360.306 352.324 362 355.191 362H409.809C412.676 362 415 360.306 415 358.216V351.784C415 349.694 412.676 348 409.809 348Z" fill="#2A5FFF"/>
</svg>
