<svg width="920" height="532" viewBox="0 0 920 532" fill="none" xmlns="http://www.w3.org/2000/svg">
<path opacity="0.2" d="M460 531.5C714.051 531.5 920 521.65 920 509.5C920 497.35 714.051 487.5 460 487.5C205.949 487.5 0 497.35 0 509.5C0 521.65 205.949 531.5 460 531.5Z" fill="black"/>
<path d="M873 35H33V85H873V35Z" fill="#3F3D56"/>
<path d="M33 491.33C33 494.176 33.5605 496.994 34.6495 499.623C35.7386 502.252 37.3348 504.641 39.347 506.653C41.3593 508.665 43.7482 510.261 46.3773 511.35C49.0064 512.439 51.8243 513 54.6701 513H851.33C854.176 513 856.994 512.439 859.623 511.35C862.252 510.261 864.641 508.665 866.653 506.653C868.665 504.641 870.261 502.252 871.35 499.623C872.439 496.994 873 494.176 873 491.33V60H33V491.33Z" fill="#F3F3F3"/>
<path d="M851.33 0H54.6701C51.8243 -1.31322e-06 49.0064 0.560512 46.3773 1.64954C43.7482 2.73856 41.3593 4.33476 39.347 6.34702C37.3348 8.35927 35.7386 10.7482 34.6495 13.3773C33.5605 16.0064 33 18.8243 33 21.6701V60H873V21.6701C873 18.8243 872.439 16.0064 871.35 13.3773C870.261 10.7482 868.665 8.35927 866.653 6.34702C864.641 4.33476 862.252 2.73856 859.623 1.64954C856.994 0.560512 854.176 -1.31322e-06 851.33 0V0Z" fill="#3F3D56"/>
<path opacity="0.2" d="M851.33 0H54.6701C51.8243 -1.31322e-06 49.0064 0.560512 46.3773 1.64954C43.7482 2.73856 41.3593 4.33476 39.347 6.34702C37.3348 8.35927 35.7386 10.7482 34.6495 13.3773C33.5605 16.0064 33 18.8243 33 21.6701V60H873V21.6701C873 18.8243 872.439 16.0064 871.35 13.3773C870.261 10.7482 868.665 8.35927 866.653 6.34702C864.641 4.33476 862.252 2.73856 859.623 1.64954C856.994 0.560512 854.176 -1.31322e-06 851.33 0V0Z" fill="#161616"/>
<path d="M83 43C90.1797 43 96 37.1797 96 30C96 22.8203 90.1797 17 83 17C75.8203 17 70 22.8203 70 30C70 37.1797 75.8203 43 83 43Z" fill="#F03F3F"/>
<path d="M119 43C126.18 43 132 37.1797 132 30C132 22.8203 126.18 17 119 17C111.82 17 106 22.8203 106 30C106 37.1797 111.82 43 119 43Z" fill="#FFFF50"/>
<path d="M155 43C162.18 43 168 37.1797 168 30C168 22.8203 162.18 17 155 17C147.82 17 142 22.8203 142 30C142 37.1797 147.82 43 155 43Z" fill="#3ECC5F"/>
<path d="M401.665 96H75.3351C72.3886 96 70 98.3886 70 101.335V476.665C70 479.611 72.3886 482 75.3351 482H401.665C404.611 482 407 479.611 407 476.665V101.335C407 98.3886 404.611 96 401.665 96Z" fill="#F9F9F9"/>
<path d="M783.524 155H510.476C507.452 155 505 157.452 505 160.476V171.524C505 174.548 507.452 177 510.476 177H783.524C786.548 177 789 174.548 789 171.524V160.476C789 157.452 786.548 155 783.524 155Z" fill="#D9D9D9"/>
<path d="M849.524 235H444.476C441.452 235 439 237.452 439 240.476V244.524C439 247.548 441.452 250 444.476 250H849.524C852.548 250 855 247.548 855 244.524V240.476C855 237.452 852.548 235 849.524 235Z" fill="#D9D9D9"/>
<path d="M849.524 279H444.476C441.452 279 439 281.452 439 284.476V288.524C439 291.548 441.452 294 444.476 294H849.524C852.548 294 855 291.548 855 288.524V284.476C855 281.452 852.548 279 849.524 279Z" fill="#D9D9D9"/>
<path d="M849.524 323H444.476C441.452 323 439 325.452 439 328.476V332.524C439 335.548 441.452 338 444.476 338H849.524C852.548 338 855 335.548 855 332.524V328.476C855 325.452 852.548 323 849.524 323Z" fill="#D9D9D9"/>
<path d="M849.524 367H444.476C441.452 367 439 369.452 439 372.476V376.524C439 379.548 441.452 382 444.476 382H849.524C852.548 382 855 379.548 855 376.524V372.476C855 369.452 852.548 367 849.524 367Z" fill="#D9D9D9"/>
<path d="M847.972 435H774.028C770.146 435 767 438.146 767 442.028V453.972C767 457.854 770.146 461 774.028 461H847.972C851.854 461 855 457.854 855 453.972V442.028C855 438.146 851.854 435 847.972 435Z" fill="#2A5FFF"/>
<path d="M328.806 208.556H278.899V229.178H328.806V208.556Z" fill="#0B44FF"/>
<path d="M342.495 208.556H328.806V229.178H342.495V208.556Z" fill="#2E5FFF"/>
<path d="M232.214 208.556H128.282V345.896H232.214V208.556Z" fill="#002CBC"/>
<path d="M272.094 246.128H267.763V241.615C267.763 236.258 263.405 231.899 258.048 231.899H236.028C228.282 231.899 221.981 225.598 221.981 217.853V208.556H226.312V217.853C226.312 223.21 230.671 227.568 236.028 227.568H258.048C265.793 227.568 272.094 233.869 272.094 241.615V246.128Z" fill="#2E5FFF"/>
<path d="M282.611 246.129H278.28V232.953C278.28 227.596 273.922 223.238 268.565 223.238H267.219C259.473 223.238 253.172 216.936 253.172 209.191V199.894H257.503V209.191C257.503 214.548 261.861 218.907 267.219 218.907H268.565C276.311 218.907 282.611 225.208 282.611 232.953V246.129Z" fill="#161616"/>
<path d="M326.409 229.178H318.16V265.886H326.409V229.178Z" fill="#2E5FFF"/>
<path d="M318.16 229.178H289.545V265.886H318.16V229.178Z" fill="#0B44FF"/>
<path d="M303.852 258.914H183.211C181.274 258.914 179.705 257.345 179.705 255.408C179.705 253.472 181.274 251.902 183.211 251.902H303.852C305.789 251.902 307.358 253.472 307.358 255.408C307.358 257.345 305.789 258.914 303.852 258.914Z" fill="#CCCCCC"/>
<path d="M363.983 355.174H119V369.492H363.983V355.174Z" fill="#2E5FFF"/>
<path d="M363.983 355.174H241.492V369.492H363.983V355.174Z" fill="#527AFF"/>
<path d="M153.335 369.493H119L126.169 395.077H146.166L153.335 369.493Z" fill="#2E5FFF"/>
<path d="M257.497 369.493H223.161L230.331 395.077H250.327L257.497 369.493Z" fill="#2E5FFF"/>
<path d="M364 369.493H329.666L336.834 395.077H356.832L364 369.493Z" fill="#2E5FFF"/>
<path d="M331.406 331.093H151.578V345.894H331.406V331.093Z" fill="#E6E6E6"/>
<path d="M236.211 331.093H151.578V345.894H236.211V331.093Z" fill="#B3B3B3"/>
<path d="M241.492 369.493V395.077H250.328L257.513 369.493H241.492Z" fill="#527AFF"/>
<path d="M137.313 369.493V395.077H146.149L153.335 369.493H137.313Z" fill="#0B44FF"/>
<path d="M347.979 369.493V395.077H356.815L364 369.493H347.979Z" fill="#527AFF"/>
<path d="M205.199 208.556H155.293V229.178H205.199V208.556Z" fill="#0B44FF"/>
<path d="M202.802 229.178H194.553V265.886H202.802V229.178Z" fill="#2E5FFF"/>
<path d="M194.553 229.178H165.939V265.886H194.553V229.178Z" fill="#0B44FF"/>
<path d="M218.888 208.556H205.199V229.178H218.888V208.556Z" fill="#2E5FFF"/>
<path d="M296.016 246.129H270.856V268.814H296.016V246.129Z" fill="#2E5FFF"/>
<path d="M273.124 246.129H260.545V268.814H273.124V246.129Z" fill="#0B44FF"/>
<path d="M265.907 258.914H258.277C256.341 258.914 254.771 257.345 254.771 255.408C254.771 253.472 256.341 251.902 258.277 251.902H265.907C267.844 251.902 269.413 253.472 269.413 255.408C269.413 257.345 267.844 258.914 265.907 258.914Z" fill="#CCCCCC"/>
<path d="M289.417 268.813H267.454V286.651H289.417V268.813Z" fill="#527AFF"/>
<path d="M276.734 268.813H267.454V286.651H276.734V268.813Z" fill="#0B44FF"/>
<path d="M282.147 286.652H274.723V292.839H282.147V286.652Z" fill="#527AFF"/>
<path d="M308.311 331.091H174.677L190.738 308.615H292.244L308.311 331.091Z" fill="#2E5FFF"/>
<path d="M241.494 308.615V331.091H174.677L190.738 308.615H241.494Z" fill="#2E5FFF"/>
<path d="M268.335 310.78H241.494V306.449H268.335C272.511 306.449 275.909 303.052 275.909 298.876V292.839H280.24V298.876C280.24 305.44 274.899 310.78 268.335 310.78Z" fill="#2E5FFF"/>
<path d="M241.492 183.5V355.174H363.983V183.5H241.492ZM354.703 345.894H250.772V208.556H354.703V345.894Z" fill="#527AFF"/>
<path d="M119 183.5V355.174H241.492V183.5H119ZM232.212 345.894H128.28V208.556H232.212V345.894Z" fill="#2E5FFF"/>
</svg>
